<?xml version="1.0" encoding="utf-8"?>
<!-- Generator: Adobe Illustrator 16.0.0, SVG Export Plug-In . SVG Version: 6.00 Build 0)  -->
<!DOCTYPE svg PUBLIC "-//W3C//DTD SVG 1.1//EN" "http://www.w3.org/Graphics/SVG/1.1/DTD/svg11.dtd">
<svg version="1.1" id="Layer_1" xmlns="http://www.w3.org/2000/svg" xmlns:xlink="http://www.w3.org/1999/xlink" x="0px" y="0px"
	 width="108px" height="108px" viewBox="0 0 108 108" enable-background="new 0 0 108 108" xml:space="preserve">
<circle fill="#1ABC9C" cx="54.002" cy="54" r="54"/>
<path opacity="0.3" fill="#00131A" enable-background="new    " d="M80.252,28h-52.5c-2.08,0-3.75,1.67-3.75,3.75V73
	c0,2.08,1.67,3.75,3.75,3.75h18.75v3.604l-10.547,5.273c-0.557,0.293-0.762,0.85-0.703,1.406C35.398,87.59,35.955,88,36.512,88
	h34.98l0,0c0.703,0,1.26-0.557,1.26-1.26c0-0.469-0.264-0.967-0.762-1.113l-10.488-5.273V76.75h18.75c2.08,0,3.75-1.67,3.75-3.75
	V31.75C84.002,29.67,82.332,28,80.252,28z"/>
<path fill="#FFFFFF" d="M65.561,56.703c5.297-5.297,5.625-10.781,2.25-14.156c-3.402-3.406-8.892-3.406-12.25,0
	c-0.642,0.641-1.157,1.344-1.562,2.078c-0.406-0.734-0.922-1.438-1.562-2.078c-3.359-3.359-8.844-3.359-12.219,0
	c-3.406,3.375-3.078,8.859,2.219,14.156l11.078,11.109C53.622,67.922,53.81,68,53.997,68s0.328-0.078,0.484-0.188L65.561,56.703z"/>
</svg>
