<?xml version="1.0" encoding="utf-8"?>
<!-- Generator: Adobe Illustrator 16.0.0, SVG Export Plug-In . SVG Version: 6.00 Build 0)  -->
<!DOCTYPE svg PUBLIC "-//W3C//DTD SVG 1.1//EN" "http://www.w3.org/Graphics/SVG/1.1/DTD/svg11.dtd">
<svg version="1.1" id="Layer_1" xmlns="http://www.w3.org/2000/svg" xmlns:xlink="http://www.w3.org/1999/xlink" x="0px" y="0px"
	 width="87px" height="85.75px" viewBox="0 0 87 85.75" enable-background="new 0 0 87 85.75" xml:space="preserve">
<g>
	<circle fill="#FCB539" cx="43.5" cy="43.551" r="42.201"/>
	<g>
		<path fill="#2D2C2C" d="M44.452,21.795c27.272,3.159,9.63,21.025,9.63,21.025c23.882,9.396,4.313,25.889,4.313,25.889l3.498,0.563
			c1.952-2.072,6.951-10.119,6.951-10.119c6.339-0.853,7.56-19.875,7.56-19.875C77.013,10.746,46.45,11.195,46.45,11.195
			c-5.526-1.708-6.017-4.796-6.017-4.796c-1.87,1.135,1.546,6.096,1.546,6.096c-7.153-5.693-13.9-5.281-13.9-5.281
			c1.789,0.816,3.82,4.55,3.82,4.55l-1.056-0.08c-2.598-2.773-4.964-4.442-6.998-5.432c-1.65,0.871-3.232,1.849-4.745,2.923
			c1.259,1.24,2.476,2.266,2.476,2.266c-1.274-0.383-2.342-1.009-3.234-1.728c-1.849,1.376-3.573,2.905-5.171,4.558
			C18.555,23.371,44.452,21.795,44.452,21.795z"/>
	</g>
	<g>
		<path fill="#FCB539" d="M19.074,9.148c1.508-1.072,3.085-2.049,4.729-2.919c-4.559-2.202-7.429-0.967-7.429-0.967
			C16.159,6.04,17.638,7.731,19.074,9.148z"/>
		<path fill="#FCB539" d="M18.313,9.689c-2.502-2.026-3.564-4.754-3.564-4.754c-1.869,0.08-2.359,3.822-2.359,3.822
			c-0.463,2.165-0.125,3.967,0.764,5.484C14.749,12.59,16.47,11.063,18.313,9.689z"/>
	</g>
	<path fill="#2D2C2C" d="M52.592,29.935l-0.885-4.152H20.216c-0.823,0.648-1.629,1.334-2.401,2.108
		c-4.741,4.753-7.111,10.46-7.111,17.121c0,6.709,2.376,12.439,7.129,17.193c4.753,4.753,10.46,7.13,17.122,7.13h15.682l1.956-9.175
		h-20.09V29.935H52.592z"/>
</g>
</svg>
